<?xml version="1.0" encoding="UTF-8" standalone="no"?>
<!DOCTYPE svg PUBLIC "-//W3C//DTD SVG 1.1//EN"
 "http://www.w3.org/Graphics/SVG/1.1/DTD/svg11.dtd">
<!-- Generated by graphviz version 2.40.1 (20161225.0304)
 -->
<!-- Title: dependencies Pages: 1 -->
<svg width="4944pt" height="284pt"
 viewBox="0.00 0.00 4944.00 284.00" xmlns="http://www.w3.org/2000/svg" xmlns:xlink="http://www.w3.org/1999/xlink">
<g id="graph0" class="graph" transform="scale(1 1) rotate(0) translate(4 280)">
<title>dependencies</title>
<polygon fill="#ffffff" stroke="transparent" points="-4,4 -4,-280 4940,-280 4940,4 -4,4"/>
<text text-anchor="start" x="2447.0091" y="-42.4" font-family="sans-serif" font-weight="bold" font-size="14.00" fill="#000000">Legend</text>
<polygon fill="#ffffb3" stroke="transparent" points="2234,-10 2234,-30 2254,-30 2254,-10 2234,-10"/>
<text text-anchor="start" x="2257.629" y="-15.4" font-family="sans-serif" font-size="14.00" fill="#000000"> &#160;Declarations</text>
<polygon fill="#8dd3c7" stroke="transparent" points="2347,-10 2347,-30 2367,-30 2367,-10 2347,-10"/>
<text text-anchor="start" x="2370.7251" y="-15.4" font-family="sans-serif" font-size="14.00" fill="#000000"> &#160;Module</text>
<polygon fill="#80b1d3" stroke="transparent" points="2433,-10 2433,-30 2453,-30 2453,-10 2433,-10"/>
<text text-anchor="start" x="2456.7812" y="-15.4" font-family="sans-serif" font-size="14.00" fill="#000000"> &#160;Bootstrap</text>
<polygon fill="#fdb462" stroke="transparent" points="2530,-10 2530,-30 2550,-30 2550,-10 2530,-10"/>
<text text-anchor="start" x="2553.6732" y="-15.4" font-family="sans-serif" font-size="14.00" fill="#000000"> &#160;Providers</text>
<polygon fill="#fb8072" stroke="transparent" points="2626,-10 2626,-30 2646,-30 2646,-10 2626,-10"/>
<text text-anchor="start" x="2649.7258" y="-15.4" font-family="sans-serif" font-size="14.00" fill="#000000"> &#160;Exports</text>
<g id="clust1" class="cluster">
<title>cluster_AppModule</title>
<polygon fill="none" stroke="#000000" stroke-dasharray="1,5" points="8,-70 8,-268 4928,-268 4928,-70 8,-70"/>
</g>
<g id="clust2" class="cluster">
<title>cluster_AppModule_declarations</title>
<polygon fill="none" stroke="#000000" points="431,-78 431,-130 4920,-130 4920,-78 431,-78"/>
</g>
<g id="clust34" class="cluster">
<title>cluster_AppModule_bootstrap</title>
<polygon fill="none" stroke="#000000" points="2405,-208 2405,-260 2529,-260 2529,-208 2405,-208"/>
</g>
<g id="clust35" class="cluster">
<title>cluster_AppModule_providers</title>
<polygon fill="none" stroke="#000000" points="16,-78 16,-130 423,-130 423,-78 16,-78"/>
</g>
<!-- AppComponent -->
<g id="node1" class="node">
<title>AppComponent</title>
<polygon fill="#ffffb3" stroke="#000000" points="4911.9399,-122 4806.0601,-122 4806.0601,-86 4911.9399,-86 4911.9399,-122"/>
<text text-anchor="middle" x="4859" y="-99.8" font-family="Times,serif" font-size="14.00" fill="#000000">AppComponent</text>
</g>
<!-- AppModule -->
<g id="node30" class="node">
<title>AppModule</title>
<polygon fill="#8dd3c7" stroke="#000000" points="2508.6571,-187 2505.6571,-191 2484.6571,-191 2481.6571,-187 2425.3429,-187 2425.3429,-151 2508.6571,-151 2508.6571,-187"/>
<text text-anchor="middle" x="2467" y="-164.8" font-family="Times,serif" font-size="14.00" fill="#000000">AppModule</text>
</g>
<!-- AppComponent&#45;&gt;AppModule -->
<g id="edge1" class="edge">
<title>AppComponent&#45;&gt;AppModule</title>
<path fill="none" stroke="#000000" d="M4859,-122.3802C4859,-146.2785 4859,-185 4859,-185 4859,-185 2518.7704,-185 2518.7704,-185"/>
<polygon fill="#000000" stroke="#000000" points="2518.7704,-181.5001 2508.7704,-185 2518.7703,-188.5001 2518.7704,-181.5001"/>
</g>
<!-- LinechartComponent -->
<g id="node2" class="node">
<title>LinechartComponent</title>
<polygon fill="#ffffb3" stroke="#000000" points="4788.4706,-122 4653.5294,-122 4653.5294,-86 4788.4706,-86 4788.4706,-122"/>
<text text-anchor="middle" x="4721" y="-99.8" font-family="Times,serif" font-size="14.00" fill="#000000">LinechartComponent</text>
</g>
<!-- LinechartComponent&#45;&gt;AppModule -->
<g id="edge2" class="edge">
<title>LinechartComponent&#45;&gt;AppModule</title>
<path fill="none" stroke="#000000" d="M4721,-122.3228C4721,-145.6602 4721,-183 4721,-183 4721,-183 2519.0248,-183 2519.0248,-183"/>
<polygon fill="#000000" stroke="#000000" points="2519.0249,-179.5001 2509.0248,-183 2519.0248,-186.5001 2519.0249,-179.5001"/>
</g>
<!-- MenuComponent -->
<g id="node3" class="node">
<title>MenuComponent</title>
<polygon fill="#ffffb3" stroke="#000000" points="4635.9916,-122 4522.0084,-122 4522.0084,-86 4635.9916,-86 4635.9916,-122"/>
<text text-anchor="middle" x="4579" y="-99.8" font-family="Times,serif" font-size="14.00" fill="#000000">MenuComponent</text>
</g>
<!-- MenuComponent&#45;&gt;AppModule -->
<g id="edge3" class="edge">
<title>MenuComponent&#45;&gt;AppModule</title>
<path fill="none" stroke="#000000" d="M4579,-122.2479C4579,-145.0179 4579,-181 4579,-181 4579,-181 2518.7132,-181 2518.7132,-181"/>
<polygon fill="#000000" stroke="#000000" points="2518.7133,-177.5001 2508.7132,-181 2518.7132,-184.5001 2518.7133,-177.5001"/>
</g>
<!-- MobileMenuComponent -->
<g id="node4" class="node">
<title>MobileMenuComponent</title>
<polygon fill="#ffffb3" stroke="#000000" points="4504.4326,-122 4349.5674,-122 4349.5674,-86 4504.4326,-86 4504.4326,-122"/>
<text text-anchor="middle" x="4427" y="-99.8" font-family="Times,serif" font-size="14.00" fill="#000000">MobileMenuComponent</text>
</g>
<!-- MobileMenuComponent&#45;&gt;AppModule -->
<g id="edge4" class="edge">
<title>MobileMenuComponent&#45;&gt;AppModule</title>
<path fill="none" stroke="#000000" d="M4427,-122.2921C4427,-144.2057 4427,-178 4427,-178 4427,-178 2518.8441,-178 2518.8441,-178"/>
<polygon fill="#000000" stroke="#000000" points="2518.8442,-174.5001 2508.8441,-178 2518.8441,-181.5001 2518.8442,-174.5001"/>
</g>
<!-- LocationDataComponent -->
<g id="node5" class="node">
<title>LocationDataComponent</title>
<polygon fill="#ffffb3" stroke="#000000" points="4331.5225,-122 4174.4775,-122 4174.4775,-86 4331.5225,-86 4331.5225,-122"/>
<text text-anchor="middle" x="4253" y="-99.8" font-family="Times,serif" font-size="14.00" fill="#000000">LocationDataComponent</text>
</g>
<!-- LocationDataComponent&#45;&gt;AppModule -->
<g id="edge5" class="edge">
<title>LocationDataComponent&#45;&gt;AppModule</title>
<path fill="none" stroke="#000000" d="M4253,-122.1686C4253,-143.498 4253,-176 4253,-176 4253,-176 2518.9518,-176 2518.9518,-176"/>
<polygon fill="#000000" stroke="#000000" points="2518.9518,-172.5001 2508.9518,-176 2518.9518,-179.5001 2518.9518,-172.5001"/>
</g>
<!-- GeneralDataComponent -->
<g id="node6" class="node">
<title>GeneralDataComponent</title>
<polygon fill="#ffffb3" stroke="#000000" points="4156.0604,-122 4003.9396,-122 4003.9396,-86 4156.0604,-86 4156.0604,-122"/>
<text text-anchor="middle" x="4080" y="-99.8" font-family="Times,serif" font-size="14.00" fill="#000000">GeneralDataComponent</text>
</g>
<!-- GeneralDataComponent&#45;&gt;AppModule -->
<g id="edge6" class="edge">
<title>GeneralDataComponent&#45;&gt;AppModule</title>
<path fill="none" stroke="#000000" d="M4080,-122.0267C4080,-142.7672 4080,-174 4080,-174 4080,-174 2518.903,-174 2518.903,-174"/>
<polygon fill="#000000" stroke="#000000" points="2518.903,-170.5001 2508.903,-174 2518.9029,-177.5001 2518.903,-170.5001"/>
</g>
<!-- SensorDataComponent -->
<g id="node7" class="node">
<title>SensorDataComponent</title>
<polygon fill="#ffffb3" stroke="#000000" points="3985.8613,-122 3840.1387,-122 3840.1387,-86 3985.8613,-86 3985.8613,-122"/>
<text text-anchor="middle" x="3913" y="-99.8" font-family="Times,serif" font-size="14.00" fill="#000000">SensorDataComponent</text>
</g>
<!-- SensorDataComponent&#45;&gt;AppModule -->
<g id="edge7" class="edge">
<title>SensorDataComponent&#45;&gt;AppModule</title>
<path fill="none" stroke="#000000" d="M3913,-122.2228C3913,-142.3652 3913,-172 3913,-172 3913,-172 2518.7165,-172 2518.7165,-172"/>
<polygon fill="#000000" stroke="#000000" points="2518.7166,-168.5001 2508.7165,-172 2518.7165,-175.5001 2518.7166,-168.5001"/>
</g>
<!-- MovementDataComponent -->
<g id="node8" class="node">
<title>MovementDataComponent</title>
<polygon fill="#ffffb3" stroke="#000000" points="3822.4143,-122 3653.5857,-122 3653.5857,-86 3822.4143,-86 3822.4143,-122"/>
<text text-anchor="middle" x="3738" y="-99.8" font-family="Times,serif" font-size="14.00" fill="#000000">MovementDataComponent</text>
</g>
<!-- MovementDataComponent&#45;&gt;AppModule -->
<g id="edge8" class="edge">
<title>MovementDataComponent&#45;&gt;AppModule</title>
<path fill="none" stroke="#000000" d="M3738,-122.1061C3738,-141.3391 3738,-169 3738,-169 3738,-169 2518.9264,-169 2518.9264,-169"/>
<polygon fill="#000000" stroke="#000000" points="2518.9265,-165.5001 2508.9264,-169 2518.9264,-172.5001 2518.9265,-165.5001"/>
</g>
<!-- BusDataComponent -->
<g id="node9" class="node">
<title>BusDataComponent</title>
<polygon fill="#ffffb3" stroke="#000000" points="3635.5408,-122 3506.4592,-122 3506.4592,-86 3635.5408,-86 3635.5408,-122"/>
<text text-anchor="middle" x="3571" y="-99.8" font-family="Times,serif" font-size="14.00" fill="#000000">BusDataComponent</text>
</g>
<!-- BusDataComponent&#45;&gt;AppModule -->
<g id="edge9" class="edge">
<title>BusDataComponent&#45;&gt;AppModule</title>
<path fill="none" stroke="#000000" d="M3571,-122.2222C3571,-140.8285 3571,-167 3571,-167 3571,-167 2518.93,-167 2518.93,-167"/>
<polygon fill="#000000" stroke="#000000" points="2518.93,-163.5001 2508.93,-167 2518.93,-170.5001 2518.93,-163.5001"/>
</g>
<!-- EngineDataComponent -->
<g id="node10" class="node">
<title>EngineDataComponent</title>
<polygon fill="#ffffb3" stroke="#000000" points="3488.9172,-122 3341.0828,-122 3341.0828,-86 3488.9172,-86 3488.9172,-122"/>
<text text-anchor="middle" x="3415" y="-99.8" font-family="Times,serif" font-size="14.00" fill="#000000">EngineDataComponent</text>
</g>
<!-- EngineDataComponent&#45;&gt;AppModule -->
<g id="edge10" class="edge">
<title>EngineDataComponent&#45;&gt;AppModule</title>
<path fill="none" stroke="#000000" d="M3415,-122.302C3415,-140.2699 3415,-165 3415,-165 3415,-165 2518.9576,-165 2518.9576,-165"/>
<polygon fill="#000000" stroke="#000000" points="2518.9576,-161.5001 2508.9576,-165 2518.9576,-168.5001 2518.9576,-161.5001"/>
</g>
<!-- BatteryDataComponent -->
<g id="node11" class="node">
<title>BatteryDataComponent</title>
<polygon fill="#ffffb3" stroke="#000000" points="3323.4664,-122 3174.5336,-122 3174.5336,-86 3323.4664,-86 3323.4664,-122"/>
<text text-anchor="middle" x="3249" y="-99.8" font-family="Times,serif" font-size="14.00" fill="#000000">BatteryDataComponent</text>
</g>
<!-- BatteryDataComponent&#45;&gt;AppModule -->
<g id="edge11" class="edge">
<title>BatteryDataComponent&#45;&gt;AppModule</title>
<path fill="none" stroke="#000000" d="M3249,-122.0225C3249,-139.3734 3249,-163 3249,-163 3249,-163 2518.7673,-163 2518.7673,-163"/>
<polygon fill="#000000" stroke="#000000" points="2518.7673,-159.5001 2508.7673,-163 2518.7672,-166.5001 2518.7673,-159.5001"/>
</g>
<!-- ModalComponent -->
<g id="node12" class="node">
<title>ModalComponent</title>
<polygon fill="#ffffb3" stroke="#000000" points="3156.8823,-122 3039.1177,-122 3039.1177,-86 3156.8823,-86 3156.8823,-122"/>
<text text-anchor="middle" x="3098" y="-99.8" font-family="Times,serif" font-size="14.00" fill="#000000">ModalComponent</text>
</g>
<!-- ModalComponent&#45;&gt;AppModule -->
<g id="edge12" class="edge">
<title>ModalComponent&#45;&gt;AppModule</title>
<path fill="none" stroke="#000000" d="M3098,-122.027C3098,-138.3976 3098,-160 3098,-160 3098,-160 2518.8903,-160 2518.8903,-160"/>
<polygon fill="#000000" stroke="#000000" points="2518.8904,-156.5001 2508.8903,-160 2518.8903,-163.5001 2518.8904,-156.5001"/>
</g>
<!-- HomeComponent -->
<g id="node13" class="node">
<title>HomeComponent</title>
<polygon fill="#ffffb3" stroke="#000000" points="3020.5451,-122 2905.4549,-122 2905.4549,-86 3020.5451,-86 3020.5451,-122"/>
<text text-anchor="middle" x="2963" y="-99.8" font-family="Times,serif" font-size="14.00" fill="#000000">HomeComponent</text>
</g>
<!-- HomeComponent&#45;&gt;AppModule -->
<g id="edge13" class="edge">
<title>HomeComponent&#45;&gt;AppModule</title>
<path fill="none" stroke="#000000" d="M2963,-122.2819C2963,-137.9478 2963,-158 2963,-158 2963,-158 2518.8612,-158 2518.8612,-158"/>
<polygon fill="#000000" stroke="#000000" points="2518.8612,-154.5001 2508.8612,-158 2518.8612,-161.5001 2518.8612,-154.5001"/>
</g>
<!-- PedalChartComponent -->
<g id="node14" class="node">
<title>PedalChartComponent</title>
<polygon fill="#ffffb3" stroke="#000000" points="2886.5379,-122 2743.4621,-122 2743.4621,-86 2886.5379,-86 2886.5379,-122"/>
<text text-anchor="middle" x="2815" y="-99.8" font-family="Times,serif" font-size="14.00" fill="#000000">PedalChartComponent</text>
</g>
<!-- PedalChartComponent&#45;&gt;AppModule -->
<g id="edge14" class="edge">
<title>PedalChartComponent&#45;&gt;AppModule</title>
<path fill="none" stroke="#000000" d="M2815,-122.1871C2815,-137.1824 2815,-156 2815,-156 2815,-156 2518.9769,-156 2518.9769,-156"/>
<polygon fill="#000000" stroke="#000000" points="2518.977,-152.5001 2508.9769,-156 2518.9769,-159.5001 2518.977,-152.5001"/>
</g>
<!-- NAComponent -->
<g id="node15" class="node">
<title>NAComponent</title>
<polygon fill="#ffffb3" stroke="#000000" points="2724.5466,-122 2623.4534,-122 2623.4534,-86 2724.5466,-86 2724.5466,-122"/>
<text text-anchor="middle" x="2674" y="-99.8" font-family="Times,serif" font-size="14.00" fill="#000000">NAComponent</text>
</g>
<!-- NAComponent&#45;&gt;AppModule -->
<g id="edge15" class="edge">
<title>NAComponent&#45;&gt;AppModule</title>
<path fill="none" stroke="#000000" d="M2674,-122.0511C2674,-136.373 2674,-154 2674,-154 2674,-154 2518.8895,-154 2518.8895,-154"/>
<polygon fill="#000000" stroke="#000000" points="2518.8896,-150.5001 2508.8895,-154 2518.8895,-157.5001 2518.8896,-150.5001"/>
</g>
<!-- LoaderComponent -->
<g id="node16" class="node">
<title>LoaderComponent</title>
<polygon fill="#ffffb3" stroke="#000000" points="2605.4748,-122 2484.5252,-122 2484.5252,-86 2605.4748,-86 2605.4748,-122"/>
<text text-anchor="middle" x="2545" y="-99.8" font-family="Times,serif" font-size="14.00" fill="#000000">LoaderComponent</text>
</g>
<!-- LoaderComponent&#45;&gt;AppModule -->
<g id="edge16" class="edge">
<title>LoaderComponent&#45;&gt;AppModule</title>
<path fill="none" stroke="#000000" d="M2496.6704,-122.1061C2496.6704,-122.1061 2496.6704,-140.991 2496.6704,-140.991"/>
<polygon fill="#000000" stroke="#000000" points="2493.1705,-140.9909 2496.6704,-150.991 2500.1705,-140.991 2493.1705,-140.9909"/>
</g>
<!-- BatteryChartComponent -->
<g id="node17" class="node">
<title>BatteryChartComponent</title>
<polygon fill="#ffffb3" stroke="#000000" points="2466.6428,-122 2313.3572,-122 2313.3572,-86 2466.6428,-86 2466.6428,-122"/>
<text text-anchor="middle" x="2390" y="-99.8" font-family="Times,serif" font-size="14.00" fill="#000000">BatteryChartComponent</text>
</g>
<!-- BatteryChartComponent&#45;&gt;AppModule -->
<g id="edge17" class="edge">
<title>BatteryChartComponent&#45;&gt;AppModule</title>
<path fill="none" stroke="#000000" d="M2445.9965,-122.1061C2445.9965,-122.1061 2445.9965,-140.991 2445.9965,-140.991"/>
<polygon fill="#000000" stroke="#000000" points="2442.4966,-140.9909 2445.9965,-150.991 2449.4966,-140.991 2442.4966,-140.9909"/>
</g>
<!-- InfoComponent -->
<g id="node18" class="node">
<title>InfoComponent</title>
<polygon fill="#ffffb3" stroke="#000000" points="2295.1542,-122 2190.8458,-122 2190.8458,-86 2295.1542,-86 2295.1542,-122"/>
<text text-anchor="middle" x="2243" y="-99.8" font-family="Times,serif" font-size="14.00" fill="#000000">InfoComponent</text>
</g>
<!-- InfoComponent&#45;&gt;AppModule -->
<g id="edge18" class="edge">
<title>InfoComponent&#45;&gt;AppModule</title>
<path fill="none" stroke="#000000" d="M2243,-122.0511C2243,-136.373 2243,-154 2243,-154 2243,-154 2415.1301,-154 2415.1301,-154"/>
<polygon fill="#000000" stroke="#000000" points="2415.1301,-157.5001 2425.1301,-154 2415.13,-150.5001 2415.1301,-157.5001"/>
</g>
<!-- NAChartComponent -->
<g id="node19" class="node">
<title>NAChartComponent</title>
<polygon fill="#ffffb3" stroke="#000000" points="2172.1485,-122 2039.8515,-122 2039.8515,-86 2172.1485,-86 2172.1485,-122"/>
<text text-anchor="middle" x="2106" y="-99.8" font-family="Times,serif" font-size="14.00" fill="#000000">NAChartComponent</text>
</g>
<!-- NAChartComponent&#45;&gt;AppModule -->
<g id="edge19" class="edge">
<title>NAChartComponent&#45;&gt;AppModule</title>
<path fill="none" stroke="#000000" d="M2106,-122.1871C2106,-137.1824 2106,-156 2106,-156 2106,-156 2415.236,-156 2415.236,-156"/>
<polygon fill="#000000" stroke="#000000" points="2415.2361,-159.5001 2425.236,-156 2415.236,-152.5001 2415.2361,-159.5001"/>
</g>
<!-- TempChartComponent -->
<g id="node20" class="node">
<title>TempChartComponent</title>
<polygon fill="#ffffb3" stroke="#000000" points="2021.5926,-122 1876.4074,-122 1876.4074,-86 2021.5926,-86 2021.5926,-122"/>
<text text-anchor="middle" x="1949" y="-99.8" font-family="Times,serif" font-size="14.00" fill="#000000">TempChartComponent</text>
</g>
<!-- TempChartComponent&#45;&gt;AppModule -->
<g id="edge20" class="edge">
<title>TempChartComponent&#45;&gt;AppModule</title>
<path fill="none" stroke="#000000" d="M1949,-122.2819C1949,-137.9478 1949,-158 1949,-158 1949,-158 2415.0487,-158 2415.0487,-158"/>
<polygon fill="#000000" stroke="#000000" points="2415.0487,-161.5001 2425.0487,-158 2415.0486,-154.5001 2415.0487,-161.5001"/>
</g>
<!-- RadialGaugeComponent -->
<g id="node21" class="node">
<title>RadialGaugeComponent</title>
<polygon fill="#ffffb3" stroke="#000000" points="1858.4158,-122 1703.5842,-122 1703.5842,-86 1858.4158,-86 1858.4158,-122"/>
<text text-anchor="middle" x="1781" y="-99.8" font-family="Times,serif" font-size="14.00" fill="#000000">RadialGaugeComponent</text>
</g>
<!-- RadialGaugeComponent&#45;&gt;AppModule -->
<g id="edge21" class="edge">
<title>RadialGaugeComponent&#45;&gt;AppModule</title>
<path fill="none" stroke="#000000" d="M1781,-122.027C1781,-138.3976 1781,-160 1781,-160 1781,-160 2415.1203,-160 2415.1203,-160"/>
<polygon fill="#000000" stroke="#000000" points="2415.1203,-163.5001 2425.1203,-160 2415.1202,-156.5001 2415.1203,-163.5001"/>
</g>
<!-- RpmGaugeComponent -->
<g id="node22" class="node">
<title>RpmGaugeComponent</title>
<polygon fill="#ffffb3" stroke="#000000" points="1685.5954,-122 1540.4046,-122 1540.4046,-86 1685.5954,-86 1685.5954,-122"/>
<text text-anchor="middle" x="1613" y="-99.8" font-family="Times,serif" font-size="14.00" fill="#000000">RpmGaugeComponent</text>
</g>
<!-- RpmGaugeComponent&#45;&gt;AppModule -->
<g id="edge22" class="edge">
<title>RpmGaugeComponent&#45;&gt;AppModule</title>
<path fill="none" stroke="#000000" d="M1613,-122.0225C1613,-139.3734 1613,-163 1613,-163 1613,-163 2415.2317,-163 2415.2317,-163"/>
<polygon fill="#000000" stroke="#000000" points="2415.2317,-166.5001 2425.2317,-163 2415.2317,-159.5001 2415.2317,-166.5001"/>
</g>
<!-- CompassComponent -->
<g id="node23" class="node">
<title>CompassComponent</title>
<polygon fill="#ffffb3" stroke="#000000" points="1522.1638,-122 1389.8362,-122 1389.8362,-86 1522.1638,-86 1522.1638,-122"/>
<text text-anchor="middle" x="1456" y="-99.8" font-family="Times,serif" font-size="14.00" fill="#000000">CompassComponent</text>
</g>
<!-- CompassComponent&#45;&gt;AppModule -->
<g id="edge23" class="edge">
<title>CompassComponent&#45;&gt;AppModule</title>
<path fill="none" stroke="#000000" d="M1456,-122.302C1456,-140.2699 1456,-165 1456,-165 1456,-165 2415.1648,-165 2415.1648,-165"/>
<polygon fill="#000000" stroke="#000000" points="2415.1648,-168.5001 2425.1648,-165 2415.1648,-161.5001 2415.1648,-168.5001"/>
</g>
<!-- OutTempChartComponent -->
<g id="node24" class="node">
<title>OutTempChartComponent</title>
<polygon fill="#ffffb3" stroke="#000000" points="1372.0898,-122 1205.9102,-122 1205.9102,-86 1372.0898,-86 1372.0898,-122"/>
<text text-anchor="middle" x="1289" y="-99.8" font-family="Times,serif" font-size="14.00" fill="#000000">OutTempChartComponent</text>
</g>
<!-- OutTempChartComponent&#45;&gt;AppModule -->
<g id="edge24" class="edge">
<title>OutTempChartComponent&#45;&gt;AppModule</title>
<path fill="none" stroke="#000000" d="M1289,-122.2222C1289,-140.8285 1289,-167 1289,-167 1289,-167 2415.0744,-167 2415.0744,-167"/>
<polygon fill="#000000" stroke="#000000" points="2415.0744,-170.5001 2425.0744,-167 2415.0743,-163.5001 2415.0744,-170.5001"/>
</g>
<!-- NAGaugeComponent -->
<g id="node25" class="node">
<title>NAGaugeComponent</title>
<polygon fill="#ffffb3" stroke="#000000" points="1188.0814,-122 1049.9186,-122 1049.9186,-86 1188.0814,-86 1188.0814,-122"/>
<text text-anchor="middle" x="1119" y="-99.8" font-family="Times,serif" font-size="14.00" fill="#000000">NAGaugeComponent</text>
</g>
<!-- NAGaugeComponent&#45;&gt;AppModule -->
<g id="edge25" class="edge">
<title>NAGaugeComponent&#45;&gt;AppModule</title>
<path fill="none" stroke="#000000" d="M1119,-122.1061C1119,-141.3391 1119,-169 1119,-169 1119,-169 2415.1789,-169 2415.1789,-169"/>
<polygon fill="#000000" stroke="#000000" points="2415.1789,-172.5001 2425.1789,-169 2415.1788,-165.5001 2415.1789,-172.5001"/>
</g>
<!-- RawDataComponent -->
<g id="node26" class="node">
<title>RawDataComponent</title>
<polygon fill="#ffffb3" stroke="#000000" points="1031.9173,-122 898.0827,-122 898.0827,-86 1031.9173,-86 1031.9173,-122"/>
<text text-anchor="middle" x="965" y="-99.8" font-family="Times,serif" font-size="14.00" fill="#000000">RawDataComponent</text>
</g>
<!-- RawDataComponent&#45;&gt;AppModule -->
<g id="edge26" class="edge">
<title>RawDataComponent&#45;&gt;AppModule</title>
<path fill="none" stroke="#000000" d="M965,-122.2228C965,-142.3652 965,-172 965,-172 965,-172 2415.2603,-172 2415.2603,-172"/>
<polygon fill="#000000" stroke="#000000" points="2415.2603,-175.5001 2425.2603,-172 2415.2602,-168.5001 2415.2603,-175.5001"/>
</g>
<!-- NaTempComponent -->
<g id="node27" class="node">
<title>NaTempComponent</title>
<polygon fill="#ffffb3" stroke="#000000" points="880.3118,-122 749.6882,-122 749.6882,-86 880.3118,-86 880.3118,-122"/>
<text text-anchor="middle" x="815" y="-99.8" font-family="Times,serif" font-size="14.00" fill="#000000">NaTempComponent</text>
</g>
<!-- NaTempComponent&#45;&gt;AppModule -->
<g id="edge27" class="edge">
<title>NaTempComponent&#45;&gt;AppModule</title>
<path fill="none" stroke="#000000" d="M815,-122.0267C815,-142.7672 815,-174 815,-174 815,-174 2415.3376,-174 2415.3376,-174"/>
<polygon fill="#000000" stroke="#000000" points="2415.3376,-177.5001 2425.3376,-174 2415.3376,-170.5001 2415.3376,-177.5001"/>
</g>
<!-- SlipGaugeComponent -->
<g id="node28" class="node">
<title>SlipGaugeComponent</title>
<polygon fill="#ffffb3" stroke="#000000" points="732.4327,-122 591.5673,-122 591.5673,-86 732.4327,-86 732.4327,-122"/>
<text text-anchor="middle" x="662" y="-99.8" font-family="Times,serif" font-size="14.00" fill="#000000">SlipGaugeComponent</text>
</g>
<!-- SlipGaugeComponent&#45;&gt;AppModule -->
<g id="edge28" class="edge">
<title>SlipGaugeComponent&#45;&gt;AppModule</title>
<path fill="none" stroke="#000000" d="M662,-122.1686C662,-143.498 662,-176 662,-176 662,-176 2415.0396,-176 2415.0396,-176"/>
<polygon fill="#000000" stroke="#000000" points="2415.0396,-179.5001 2425.0396,-176 2415.0396,-172.5001 2415.0396,-179.5001"/>
</g>
<!-- FeedbackComponent -->
<g id="node29" class="node">
<title>FeedbackComponent</title>
<polygon fill="#ffffb3" stroke="#000000" points="573.4734,-122 438.5266,-122 438.5266,-86 573.4734,-86 573.4734,-122"/>
<text text-anchor="middle" x="506" y="-99.8" font-family="Times,serif" font-size="14.00" fill="#000000">FeedbackComponent</text>
</g>
<!-- FeedbackComponent&#45;&gt;AppModule -->
<g id="edge29" class="edge">
<title>FeedbackComponent&#45;&gt;AppModule</title>
<path fill="none" stroke="#000000" d="M506,-122.2921C506,-144.2057 506,-178 506,-178 506,-178 2415.1345,-178 2415.1345,-178"/>
<polygon fill="#000000" stroke="#000000" points="2415.1345,-181.5001 2425.1345,-178 2415.1345,-174.5001 2415.1345,-181.5001"/>
</g>
<!-- AppComponent  -->
<g id="node31" class="node">
<title>AppComponent </title>
<polygon fill="#80b1d3" stroke="#000000" points="2521.439,-252 2412.561,-252 2412.561,-216 2521.439,-216 2521.439,-252"/>
<text text-anchor="middle" x="2467" y="-229.8" font-family="Times,serif" font-size="14.00" fill="#000000">AppComponent </text>
</g>
<!-- AppModule&#45;&gt;AppComponent  -->
<g id="edge30" class="edge">
<title>AppModule&#45;&gt;AppComponent </title>
<path fill="none" stroke="#000000" stroke-dasharray="1,5" d="M2467,-187.1061C2467,-187.1061 2467,-205.991 2467,-205.991"/>
<polygon fill="#000000" stroke="#000000" points="2463.5001,-205.9909 2467,-215.991 2470.5001,-205.991 2463.5001,-205.9909"/>
</g>
<!-- LlbService -->
<g id="node32" class="node">
<title>LlbService</title>
<ellipse fill="#fdb462" stroke="#000000" cx="362" cy="-104" rx="53.3071" ry="18"/>
<text text-anchor="middle" x="362" y="-99.8" font-family="Times,serif" font-size="14.00" fill="#000000">LlbService</text>
</g>
<!-- LlbService&#45;&gt;AppModule -->
<g id="edge31" class="edge">
<title>LlbService&#45;&gt;AppModule</title>
<path fill="none" stroke="#000000" d="M362,-122.2479C362,-145.0179 362,-181 362,-181 362,-181 2414.9518,-181 2414.9518,-181"/>
<polygon fill="#000000" stroke="#000000" points="2414.9519,-184.5001 2424.9518,-181 2414.9518,-177.5001 2414.9519,-184.5001"/>
</g>
<!-- RestService -->
<g id="node33" class="node">
<title>RestService</title>
<ellipse fill="#fdb462" stroke="#000000" cx="233" cy="-104" rx="57.3166" ry="18"/>
<text text-anchor="middle" x="233" y="-99.8" font-family="Times,serif" font-size="14.00" fill="#000000">RestService</text>
</g>
<!-- RestService&#45;&gt;AppModule -->
<g id="edge32" class="edge">
<title>RestService&#45;&gt;AppModule</title>
<path fill="none" stroke="#000000" d="M233,-122.3228C233,-145.6602 233,-183 233,-183 233,-183 2414.8592,-183 2414.8592,-183"/>
<polygon fill="#000000" stroke="#000000" points="2414.8593,-186.5001 2424.8592,-183 2414.8592,-179.5001 2414.8593,-186.5001"/>
</g>
<!-- LoaderService -->
<g id="node34" class="node">
<title>LoaderService</title>
<ellipse fill="#fdb462" stroke="#000000" cx="91" cy="-104" rx="67.1734" ry="18"/>
<text text-anchor="middle" x="91" y="-99.8" font-family="Times,serif" font-size="14.00" fill="#000000">LoaderService</text>
</g>
<!-- LoaderService&#45;&gt;AppModule -->
<g id="edge33" class="edge">
<title>LoaderService&#45;&gt;AppModule</title>
<path fill="none" stroke="#000000" d="M91,-122.3802C91,-146.2785 91,-185 91,-185 91,-185 2415.2573,-185 2415.2573,-185"/>
<polygon fill="#000000" stroke="#000000" points="2415.2573,-188.5001 2425.2573,-185 2415.2573,-181.5001 2415.2573,-188.5001"/>
</g>
</g>
</svg>
